<svg cursor="default" height="120" preserveAspectRatio="xMidYMid meet" viewBox="0 0 400 120" width="400" xmlns="http://www.w3.org/2000/svg"><path d="m59 11.731995 37.301 21.536a6 6 0 0 1 3 5.196v43.072a6 6 0 0 1 -3 5.196l-37.301 21.536a6 6 0 0 1 -6 0l-37.301-21.536a6 6 0 0 1 -3-5.196v-43.072a6 6 0 0 1 3-5.196l37.301-21.536a6 6 0 0 1 6 0z" fill="#ffe66c"/><g fill="#1a535c"><path d="m56 32c-14.359985 0-26 11.640015-26 26s11.64 26 26 26 26-11.64 26-26-11.640015-26-26-26m-3.504 40.139999c-2.342 2.344-6.31 2.174-10.606-2.12-4.293992-4.296-3.534043-12.019999-3.534043-12.019999s7.724-.76 12.02 3.536c4.294 4.294 4.464 8.262 2.12 10.604m-2.495957-21.14c0-6.073975 6-11 6-11s6 4.926 6 11-2.688 9-6 9-6-2.926-6-9m20.110001 19.02c-4.296 4.294-8.264 4.464-10.606 2.12-2.344-2.342-2.174-6.31 2.12-10.606 4.295982-4.29401 12.019981-3.534 12.019981-3.534s.76 7.724-3.534 12.02z"/><text style="font-weight:400;text-rendering:geometricPrecision;font-family:Helvetica;font-size:64;text-anchor:middle;font-variant:small-caps" x="247" y="81">HEDERA</text></g></svg>