<svg cursor="default" height="120" preserveAspectRatio="xMidYMid meet" viewBox="0 0 400 120" width="400" xmlns="http://www.w3.org/2000/svg">
<path d="m59 11.731995 37.301 21.536a6 6 0 0 1 3 5.196v43.072a6 6 0 0 1 -3 5.196l-37.301 21.536a6 6 0 0 1 -6 0l-37.301-21.536a6 6 0 0 1 -3-5.196v-43.072a6 6 0 0 1 3-5.196l37.301-21.536a6 6 0 0 1 6 0z" fill="#023D50"/>
<path style="fill:#6CFF9D;" d="m56 32c-14.359985 0-26 11.640015-26 26s11.64 26 26 26 26-11.64 26-26-11.640015-26-26-26m-3.504 40.139999c-2.342 2.344-6.31 2.174-10.606-2.12-4.293992-4.296-3.534043-12.019999-3.534043-12.019999s7.724-.76 12.02 3.536c4.294 4.294 4.464 8.262 2.12 10.604m-2.495957-21.14c0-6.073975 6-11 6-11s6 4.926 6 11-2.688 9-6 9-6-2.926-6-9m20.110001 19.02c-4.296 4.294-8.264 4.464-10.606 2.12-2.344-2.342-2.174-6.31 2.12-10.606 4.295982-4.29401 12.019981-3.534 12.019981-3.534s.76 7.724-3.534 12.02z"/>
<g style="">
<defs>
<filter id="shadow" x="-20%" y="-20%" width="140%" height="140%">
<feGaussianBlur stdDeviation="2 2" result="shadow"/>
<feOffset dx="3" dy="3"/>
</filter>
<filter id="outline">
        <feMorphology in="SourceAlpha" result="DILATED" operator="dilate" radius="2"></feMorphology>
        <feFlood flood-color="#39FF7Bab" flood-opacity="1" result="PINK"></feFlood>
        <feComposite in="PINK" in2="DILATED" operator="in" result="OUTLINE"></feComposite>

        <feMerge>
            <feMergeNode in="OUTLINE" />
            <feMergeNode in="SourceGraphic" />
        </feMerge>
    </filter>
</defs>

<text style="fill:#6CFF9D;letter-spacing:1;font-weight:800;text-rendering:geometricPrecision;font-family:Helvetica;font-size:64;text-anchor:middle; text-shadow: 2px 2px 8px #ff00002f;" x="255" y="81" filter="url(#outline)">HEDERA</text>
</g>
</svg>
